<svg width="399" height="308" viewBox="0 0 399 308" fill="none" xmlns="http://www.w3.org/2000/svg">
<mask id="path-1-outside-1_335_4" maskUnits="userSpaceOnUse" x="10" y="117" width="373" height="136" fill="black">
<rect fill="white" x="10" y="117" width="373" height="136"/>
<path d="M57.0743 251.309C48.3477 251.309 40.4937 249.813 33.5123 246.821C26.531 243.704 21.0457 239.341 17.0563 233.731C13.067 228.121 11.0723 221.576 11.0723 214.096H33.8863C34.385 219.706 36.5667 224.319 40.4313 227.934C44.4207 231.549 49.9683 233.357 57.0743 233.357C64.4297 233.357 70.1643 231.612 74.2783 228.121C78.3923 224.506 80.4493 219.893 80.4493 214.283C80.4493 209.92 79.1403 206.367 76.5223 203.624C74.029 200.881 70.85 198.762 66.9853 197.266C63.2453 195.77 58.0093 194.149 51.2773 192.404C42.8 190.16 35.881 187.916 30.5203 185.672C25.2843 183.303 20.7963 179.688 17.0563 174.826C13.3163 169.964 11.4463 163.481 11.4463 155.378C11.4463 147.898 13.3163 141.353 17.0563 135.743C20.7963 130.133 26.0323 125.832 32.7643 122.84C39.4963 119.848 47.288 118.352 56.1393 118.352C68.7307 118.352 79.0157 121.531 86.9943 127.889C95.0977 134.122 99.5857 142.724 100.458 153.695H76.8963C76.5223 148.958 74.2783 144.906 70.1643 141.54C66.0503 138.174 60.6273 136.491 53.8953 136.491C47.7867 136.491 42.8 138.049 38.9353 141.166C35.0707 144.283 33.1383 148.771 33.1383 154.63C33.1383 158.619 34.3227 161.923 36.6913 164.541C39.1847 167.034 42.3013 169.029 46.0413 170.525C49.7813 172.021 54.8927 173.642 61.3753 175.387C69.9773 177.756 76.9587 180.124 82.3193 182.493C87.8047 184.862 92.4173 188.539 96.1573 193.526C100.022 198.388 101.954 204.933 101.954 213.161C101.954 219.768 100.147 226.002 96.5313 231.861C93.0407 237.72 87.867 242.458 81.0103 246.073C74.2783 249.564 66.2997 251.309 57.0743 251.309ZM195.177 223.446H140.76L131.41 250H109.157L155.72 119.848H180.404L226.967 250H204.527L195.177 223.446ZM189.193 206.055L168.062 145.654L146.744 206.055H189.193ZM258.245 232.796H302.19V250H236.927V120.035H258.245V232.796ZM331.051 137.239V175.387H375.931V192.778H331.051V232.609H381.541V250H309.733V119.848H381.541V137.239H331.051Z"/>
</mask>
<path d="M33.5123 246.821L33.1047 247.734L33.1115 247.737L33.1184 247.74L33.5123 246.821ZM17.0563 233.731L17.8713 233.151L17.0563 233.731ZM11.0723 214.096V213.096H10.0723V214.096H11.0723ZM33.8863 214.096L34.8824 214.007L34.8014 213.096H33.8863V214.096ZM40.4313 227.934L39.7482 228.664L39.754 228.67L39.7598 228.675L40.4313 227.934ZM74.2783 228.121L74.9253 228.884L74.9319 228.878L74.9385 228.872L74.2783 228.121ZM76.5223 203.624L75.7824 204.297L75.7906 204.306L75.799 204.314L76.5223 203.624ZM66.9853 197.266L66.6139 198.195L66.6243 198.199L66.9853 197.266ZM51.2773 192.404L51.0214 193.371L51.0264 193.372L51.2773 192.404ZM30.5203 185.672L30.1082 186.583L30.1211 186.589L30.1342 186.594L30.5203 185.672ZM17.0563 135.743L17.8884 136.298L17.0563 135.743ZM32.7643 122.84L33.1705 123.754L32.7643 122.84ZM86.9943 127.889L86.3711 128.671L86.3778 128.676L86.3846 128.682L86.9943 127.889ZM100.458 153.695V154.695H101.541L101.455 153.616L100.458 153.695ZM76.8963 153.695L75.8994 153.774L75.9722 154.695H76.8963V153.695ZM38.9353 141.166L39.5631 141.944H39.5631L38.9353 141.166ZM36.6913 164.541L35.9498 165.212L35.9666 165.23L35.9842 165.248L36.6913 164.541ZM46.0413 170.525L46.4127 169.597L46.0413 170.525ZM61.3753 175.387L61.6408 174.423L61.6353 174.421L61.3753 175.387ZM82.3193 182.493L81.9152 183.408L81.9229 183.411L82.3193 182.493ZM96.1573 193.526L95.3573 194.126L95.3658 194.137L95.3745 194.148L96.1573 193.526ZM96.5313 231.861L95.6803 231.336L95.6762 231.343L95.6722 231.349L96.5313 231.861ZM81.0103 246.073L81.4707 246.961L81.4767 246.958L81.0103 246.073ZM57.0743 250.309C48.4631 250.309 40.7459 248.833 33.9063 245.902L33.1184 247.74C40.2414 250.793 48.2323 252.309 57.0743 252.309V250.309ZM33.92 245.908C27.0833 242.856 21.7459 238.6 17.8713 233.151L16.2414 234.311C20.3454 240.082 25.9787 244.553 33.1047 247.734L33.92 245.908ZM17.8713 233.151C14.0129 227.726 12.0723 221.387 12.0723 214.096H10.0723C10.0723 221.765 12.1212 228.516 16.2414 234.311L17.8713 233.151ZM11.0723 215.096H33.8863V213.096H11.0723V215.096ZM32.8903 214.185C33.4092 220.022 35.6916 224.869 39.7482 228.664L41.1145 227.204C37.4417 223.768 35.3608 219.39 34.8824 214.007L32.8903 214.185ZM39.7598 228.675C43.9854 232.504 49.8012 234.357 57.0743 234.357V232.357C50.1354 232.357 44.8559 230.594 41.1029 227.193L39.7598 228.675ZM57.0743 234.357C64.5805 234.357 70.5743 232.575 74.9253 228.884L73.6314 227.358C69.7544 230.648 64.2788 232.357 57.0743 232.357V234.357ZM74.9385 228.872C79.2744 225.062 81.4493 220.173 81.4493 214.283H79.4493C79.4493 219.613 77.5102 223.95 73.6182 227.37L74.9385 228.872ZM81.4493 214.283C81.4493 209.704 80.0681 205.89 77.2457 202.934L75.799 204.314C78.2125 206.843 79.4493 210.135 79.4493 214.283H81.4493ZM77.2623 202.951C74.6527 200.081 71.3385 197.879 67.3463 196.333L66.6243 198.199C70.3615 199.645 73.4053 201.682 75.7824 204.297L77.2623 202.951ZM67.3567 196.338C63.5593 194.819 58.2764 193.186 51.5283 191.436L51.0264 193.372C57.7422 195.113 62.9314 196.721 66.6139 198.194L67.3567 196.338ZM51.5332 191.437C43.0804 189.2 36.2093 186.969 30.9065 184.75L30.1342 186.594C35.5527 188.863 42.5196 191.12 51.0214 193.371L51.5332 191.437ZM30.9325 184.761C25.8562 182.464 21.4958 178.957 17.849 174.216L16.2637 175.436C20.0969 180.419 24.7125 184.142 30.1082 186.583L30.9325 184.761ZM17.849 174.216C14.281 169.578 12.4463 163.332 12.4463 155.378H10.4463C10.4463 163.631 12.3517 170.35 16.2637 175.436L17.849 174.216ZM12.4463 155.378C12.4463 148.073 14.2697 141.726 17.8884 136.298L16.2243 135.188C12.363 140.98 10.4463 147.723 10.4463 155.378H12.4463ZM17.8884 136.298C21.5136 130.86 26.5949 126.676 33.1705 123.754L32.3582 121.926C25.4697 124.988 20.079 129.406 16.2243 135.188L17.8884 136.298ZM33.1705 123.754C39.7515 120.829 47.4002 119.352 56.1393 119.352V117.352C47.1758 117.352 39.2411 118.867 32.3582 121.926L33.1705 123.754ZM56.1393 119.352C68.5587 119.352 78.6079 122.485 86.3711 128.671L87.6175 127.107C79.4235 120.577 68.9026 117.352 56.1393 117.352V119.352ZM86.3846 128.682C94.2453 134.728 98.6093 143.061 99.4615 153.774L101.455 153.616C100.562 142.387 95.95 133.516 87.604 127.096L86.3846 128.682ZM100.458 152.695H76.8963V154.695H100.458V152.695ZM77.8932 153.616C77.4951 148.574 75.0949 144.282 70.7976 140.766L69.5311 142.314C73.4617 145.53 75.5495 149.341 75.8994 153.774L77.8932 153.616ZM70.7976 140.766C66.4617 137.218 60.7953 135.491 53.8953 135.491V137.491C60.4593 137.491 65.639 139.13 69.5311 142.314L70.7976 140.766ZM53.8953 135.491C47.6124 135.491 42.3881 137.097 38.3076 140.388L39.5631 141.944C43.2119 139.002 47.9609 137.491 53.8953 137.491V135.491ZM38.3076 140.388C34.164 143.729 32.1383 148.529 32.1383 154.63H34.1383C34.1383 149.012 35.9774 144.836 39.5631 141.944L38.3076 140.388ZM32.1383 154.63C32.1383 158.833 33.3929 162.386 35.9498 165.212L37.4329 163.87C35.2524 161.46 34.1383 158.406 34.1383 154.63H32.1383ZM35.9842 165.248C38.586 167.85 41.822 169.914 45.6699 171.453L46.4127 169.597C42.7807 168.144 39.7833 166.219 37.3984 163.834L35.9842 165.248ZM45.6699 171.453C49.4623 172.97 54.6162 174.603 61.1154 176.353L61.6353 174.421C55.1691 172.68 50.1004 171.072 46.4127 169.597L45.6699 171.453ZM61.1099 176.351C69.6862 178.713 76.6162 181.066 81.9152 183.408L82.7235 181.578C77.3011 179.182 70.2685 176.799 61.6408 174.423L61.1099 176.351ZM81.9229 183.411C87.2412 185.708 91.7171 189.272 95.3573 194.126L96.9573 192.926C93.1175 187.806 88.3681 184.016 82.7158 181.575L81.9229 183.411ZM95.3745 194.148C99.0587 198.783 100.954 205.085 100.954 213.161H102.954C102.954 204.781 100.985 197.993 96.9402 192.904L95.3745 194.148ZM100.954 213.161C100.954 219.575 99.2025 225.627 95.6803 231.336L97.3824 232.386C101.091 226.376 102.954 219.962 102.954 213.161H100.954ZM95.6722 231.349C92.288 237.03 87.2606 241.647 80.5439 245.188L81.4767 246.958C88.4734 243.268 93.7933 238.411 97.3904 232.373L95.6722 231.349ZM80.55 245.185C73.9879 248.588 66.1737 250.309 57.0743 250.309V252.309C66.4256 252.309 74.5688 250.539 81.4706 246.961L80.55 245.185ZM195.177 223.446L196.12 223.114L195.885 222.446H195.177V223.446ZM140.76 223.446V222.446H140.052L139.817 223.114L140.76 223.446ZM131.41 250V251H132.118L132.353 250.332L131.41 250ZM109.157 250L108.215 249.663L107.737 251H109.157V250ZM155.72 119.848V118.848H155.015L154.778 119.511L155.72 119.848ZM180.404 119.848L181.345 119.511L181.108 118.848H180.404V119.848ZM226.967 250V251H228.387L227.908 249.663L226.967 250ZM204.527 250L203.584 250.332L203.819 251H204.527V250ZM189.193 206.055V207.055H190.602L190.137 205.725L189.193 206.055ZM168.062 145.654L169.006 145.324L168.066 142.638L167.119 145.321L168.062 145.654ZM146.744 206.055L145.801 205.722L145.33 207.055H146.744V206.055ZM195.177 222.446H140.76V224.446H195.177V222.446ZM139.817 223.114L130.467 249.668L132.353 250.332L141.703 223.778L139.817 223.114ZM131.41 249H109.157V251H131.41V249ZM110.098 250.337L156.661 120.185L154.778 119.511L108.215 249.663L110.098 250.337ZM155.72 120.848H180.404V118.848H155.72V120.848ZM179.462 120.185L226.025 250.337L227.908 249.663L181.345 119.511L179.462 120.185ZM226.967 249H204.527V251H226.967V249ZM205.47 249.668L196.12 223.114L194.234 223.778L203.584 250.332L205.47 249.668ZM190.137 205.725L169.006 145.324L167.118 145.984L188.249 206.385L190.137 205.725ZM167.119 145.321L145.801 205.722L147.687 206.388L169.005 145.987L167.119 145.321ZM146.744 207.055H189.193V205.055H146.744V207.055ZM258.245 232.796H257.245V233.796H258.245V232.796ZM302.19 232.796H303.19V231.796H302.19V232.796ZM302.19 250V251H303.19V250H302.19ZM236.927 250H235.927V251H236.927V250ZM236.927 120.035V119.035H235.927V120.035H236.927ZM258.245 120.035H259.245V119.035H258.245V120.035ZM258.245 233.796H302.19V231.796H258.245V233.796ZM301.19 232.796V250H303.19V232.796H301.19ZM302.19 249H236.927V251H302.19V249ZM237.927 250V120.035H235.927V250H237.927ZM236.927 121.035H258.245V119.035H236.927V121.035ZM257.245 120.035V232.796H259.245V120.035H257.245ZM331.051 137.239V136.239H330.051V137.239H331.051ZM331.051 175.387H330.051V176.387H331.051V175.387ZM375.931 175.387H376.931V174.387H375.931V175.387ZM375.931 192.778V193.778H376.931V192.778H375.931ZM331.051 192.778V191.778H330.051V192.778H331.051ZM331.051 232.609H330.051V233.609H331.051V232.609ZM381.541 232.609H382.541V231.609H381.541V232.609ZM381.541 250V251H382.541V250H381.541ZM309.733 250H308.733V251H309.733V250ZM309.733 119.848V118.848H308.733V119.848H309.733ZM381.541 119.848H382.541V118.848H381.541V119.848ZM381.541 137.239V138.239H382.541V137.239H381.541ZM330.051 137.239V175.387H332.051V137.239H330.051ZM331.051 176.387H375.931V174.387H331.051V176.387ZM374.931 175.387V192.778H376.931V175.387H374.931ZM375.931 191.778H331.051V193.778H375.931V191.778ZM330.051 192.778V232.609H332.051V192.778H330.051ZM331.051 233.609H381.541V231.609H331.051V233.609ZM380.541 232.609V250H382.541V232.609H380.541ZM381.541 249H309.733V251H381.541V249ZM310.733 250V119.848H308.733V250H310.733ZM309.733 120.848H381.541V118.848H309.733V120.848ZM380.541 119.848V137.239H382.541V119.848H380.541ZM381.541 136.239H331.051V138.239H381.541V136.239Z" fill="#484848" mask="url(#path-1-outside-1_335_4)"/>
<path d="M20.1439 13.755V54.068C20.1439 58.8607 21.3876 62.4703 23.8749 64.897C26.4229 67.3237 29.9416 68.537 34.4309 68.537C38.9809 68.537 42.4996 67.3237 44.9869 64.897C47.5349 62.4703 48.8089 58.8607 48.8089 54.068V13.755H59.1829V53.886C59.1829 59.0427 58.0606 63.4107 55.8159 66.99C53.5712 70.5693 50.5682 73.2387 46.8069 74.998C43.0456 76.7573 38.8899 77.637 34.3399 77.637C29.7899 77.637 25.6342 76.7573 21.8729 74.998C18.1722 73.2387 15.2299 70.5693 13.0459 66.99C10.8619 63.4107 9.7699 59.0427 9.7699 53.886V13.755H20.1439ZM79.424 68.628H100.809V77H69.05V13.755H79.424V68.628ZM146.704 13.755V22.218H129.869V77H119.495V22.218H102.569V13.755H146.704ZM163.944 13.755V77H153.57V13.755H163.944ZM240.536 13.755V77H230.162V33.684L210.87 77H203.681L184.298 33.684V77H173.924V13.755H185.117L207.321 63.35L229.434 13.755H240.536ZM288.66 64.078H262.179L257.629 77H246.8L269.459 13.664H281.471L304.13 77H293.21L288.66 64.078ZM285.748 55.615L275.465 26.222L265.091 55.615H285.748ZM351.201 13.755V22.218H334.366V77H323.992V22.218H307.066V13.755H351.201ZM368.441 22.127V40.691H390.281V49.154H368.441V68.537H393.011V77H358.067V13.664H393.011V22.127H368.441Z" fill="#484848"/>
<path d="M113.586 300H111.766L104.446 288.9V300H102.626V286.04H104.446L111.766 297.12V286.04H113.586V300ZM120.508 287.54V292.2H125.588V293.7H120.508V298.5H126.188V300H118.688V286.04H126.188V287.54H120.508ZM148.462 286.06L144.422 300H142.382L139.142 288.78L135.782 300L133.762 300.02L129.862 286.06H131.802L134.842 297.88L138.202 286.06H140.242L143.442 297.84L146.502 286.06H148.462ZM159.106 293.02C159.106 291.66 159.413 290.44 160.026 289.36C160.639 288.267 161.473 287.413 162.526 286.8C163.593 286.187 164.773 285.88 166.066 285.88C167.586 285.88 168.913 286.247 170.046 286.98C171.179 287.713 172.006 288.753 172.526 290.1H170.346C169.959 289.26 169.399 288.613 168.666 288.16C167.946 287.707 167.079 287.48 166.066 287.48C165.093 287.48 164.219 287.707 163.446 288.16C162.673 288.613 162.066 289.26 161.626 290.1C161.186 290.927 160.966 291.9 160.966 293.02C160.966 294.127 161.186 295.1 161.626 295.94C162.066 296.767 162.673 297.407 163.446 297.86C164.219 298.313 165.093 298.54 166.066 298.54C167.079 298.54 167.946 298.32 168.666 297.88C169.399 297.427 169.959 296.78 170.346 295.94H172.526C172.006 297.273 171.179 298.307 170.046 299.04C168.913 299.76 167.586 300.12 166.066 300.12C164.773 300.12 163.593 299.82 162.526 299.22C161.473 298.607 160.639 297.76 160.026 296.68C159.413 295.6 159.106 294.38 159.106 293.02ZM183.555 300.14C182.262 300.14 181.082 299.84 180.015 299.24C178.949 298.627 178.102 297.78 177.475 296.7C176.862 295.607 176.555 294.38 176.555 293.02C176.555 291.66 176.862 290.44 177.475 289.36C178.102 288.267 178.949 287.42 180.015 286.82C181.082 286.207 182.262 285.9 183.555 285.9C184.862 285.9 186.049 286.207 187.115 286.82C188.182 287.42 189.022 288.26 189.635 289.34C190.249 290.42 190.555 291.647 190.555 293.02C190.555 294.393 190.249 295.62 189.635 296.7C189.022 297.78 188.182 298.627 187.115 299.24C186.049 299.84 184.862 300.14 183.555 300.14ZM183.555 298.56C184.529 298.56 185.402 298.333 186.175 297.88C186.962 297.427 187.575 296.78 188.015 295.94C188.469 295.1 188.695 294.127 188.695 293.02C188.695 291.9 188.469 290.927 188.015 290.1C187.575 289.26 186.969 288.613 186.195 288.16C185.422 287.707 184.542 287.48 183.555 287.48C182.569 287.48 181.689 287.707 180.915 288.16C180.142 288.613 179.529 289.26 179.075 290.1C178.635 290.927 178.415 291.9 178.415 293.02C178.415 294.127 178.635 295.1 179.075 295.94C179.529 296.78 180.142 297.427 180.915 297.88C181.702 298.333 182.582 298.56 183.555 298.56ZM196.778 298.52H201.658V300H194.958V286.06H196.778V298.52ZM207.411 298.52H212.291V300H205.591V286.06H207.411V298.52ZM218.044 287.54V292.2H223.124V293.7H218.044V298.5H223.724V300H216.224V286.04H223.724V287.54H218.044ZM227.798 293.02C227.798 291.66 228.104 290.44 228.718 289.36C229.331 288.267 230.164 287.413 231.218 286.8C232.284 286.187 233.464 285.88 234.758 285.88C236.278 285.88 237.604 286.247 238.738 286.98C239.871 287.713 240.698 288.753 241.218 290.1H239.038C238.651 289.26 238.091 288.613 237.358 288.16C236.638 287.707 235.771 287.48 234.758 287.48C233.784 287.48 232.911 287.707 232.138 288.16C231.364 288.613 230.758 289.26 230.318 290.1C229.878 290.927 229.658 291.9 229.658 293.02C229.658 294.127 229.878 295.1 230.318 295.94C230.758 296.767 231.364 297.407 232.138 297.86C232.911 298.313 233.784 298.54 234.758 298.54C235.771 298.54 236.638 298.32 237.358 297.88C238.091 297.427 238.651 296.78 239.038 295.94H241.218C240.698 297.273 239.871 298.307 238.738 299.04C237.604 299.76 236.278 300.12 234.758 300.12C233.464 300.12 232.284 299.82 231.218 299.22C230.164 298.607 229.331 297.76 228.718 296.68C228.104 295.6 227.798 294.38 227.798 293.02ZM254.507 286.06V287.54H250.707V300H248.887V287.54H245.067V286.06H254.507ZM260.567 286.06V300H258.747V286.06H260.567ZM271.989 300.14C270.696 300.14 269.516 299.84 268.449 299.24C267.382 298.627 266.536 297.78 265.909 296.7C265.296 295.607 264.989 294.38 264.989 293.02C264.989 291.66 265.296 290.44 265.909 289.36C266.536 288.267 267.382 287.42 268.449 286.82C269.516 286.207 270.696 285.9 271.989 285.9C273.296 285.9 274.482 286.207 275.549 286.82C276.616 287.42 277.456 288.26 278.069 289.34C278.682 290.42 278.989 291.647 278.989 293.02C278.989 294.393 278.682 295.62 278.069 296.7C277.456 297.78 276.616 298.627 275.549 299.24C274.482 299.84 273.296 300.14 271.989 300.14ZM271.989 298.56C272.962 298.56 273.836 298.333 274.609 297.88C275.396 297.427 276.009 296.78 276.449 295.94C276.902 295.1 277.129 294.127 277.129 293.02C277.129 291.9 276.902 290.927 276.449 290.1C276.009 289.26 275.402 288.613 274.629 288.16C273.856 287.707 272.976 287.48 271.989 287.48C271.002 287.48 270.122 287.707 269.349 288.16C268.576 288.613 267.962 289.26 267.509 290.1C267.069 290.927 266.849 291.9 266.849 293.02C266.849 294.127 267.069 295.1 267.509 295.94C267.962 296.78 268.576 297.427 269.349 297.88C270.136 298.333 271.016 298.56 271.989 298.56ZM294.352 300H292.532L285.212 288.9V300H283.392V286.04H285.212L292.532 297.12V286.04H294.352V300Z" fill="#484848"/>
</svg>
